<?xml version="1.0" encoding="UTF-8" standalone="no"?>
<!-- Created with Inkscape (http://www.inkscape.org/) -->

<svg
   xmlns:dc="http://purl.org/dc/elements/1.1/"
   xmlns:cc="http://creativecommons.org/ns#"
   xmlns:rdf="http://www.w3.org/1999/02/22-rdf-syntax-ns#"
   xmlns:svg="http://www.w3.org/2000/svg"
   xmlns="http://www.w3.org/2000/svg"
   xmlns:sodipodi="http://sodipodi.sourceforge.net/DTD/sodipodi-0.dtd"
   xmlns:inkscape="http://www.inkscape.org/namespaces/inkscape"
   width="78.276573mm"
   height="20.815439mm"
   viewBox="0 0 78.276574 20.81544"
   version="1.1"
   id="svg8"
   sodipodi:docname="logo-alt.svg"
   inkscape:version="0.92.3 (2405546, 2018-03-11)">
  <defs
     id="defs2" />
  <sodipodi:namedview
     id="base"
     pagecolor="#ffffff"
     bordercolor="#666666"
     borderopacity="1.0"
     inkscape:pageopacity="0.0"
     inkscape:pageshadow="2"
     inkscape:zoom="2"
     inkscape:cx="126.40647"
     inkscape:cy="19.14067"
     inkscape:document-units="mm"
     inkscape:current-layer="layer1"
     showgrid="false"
     showguides="false"
     inkscape:guide-bbox="true"
     inkscape:window-width="1916"
     inkscape:window-height="1040"
     inkscape:window-x="0"
     inkscape:window-y="18"
     inkscape:window-maximized="0"
     fit-margin-top="3"
     fit-margin-right="3"
     fit-margin-bottom="3"
     fit-margin-left="3">
    <sodipodi:guide
       position="21.33109,5.7007784"
       orientation="0.70710678,0.70710678"
       id="guide850"
       inkscape:locked="false" />
    <sodipodi:guide
       position="14.78495,9.4577484"
       orientation="0.70710678,0.70710678"
       id="guide852"
       inkscape:locked="false" />
    <sodipodi:guide
       position="13.52818,6.8449884"
       orientation="0.70710678,0.70710678"
       id="guide854"
       inkscape:locked="false" />
    <sodipodi:guide
       position="14.619285,1.5146683"
       orientation="0.70710678,0.70710678"
       id="guide856"
       inkscape:locked="false" />
  </sodipodi:namedview>
  <metadata
     id="metadata5">
    <rdf:RDF>
      <cc:Work
         rdf:about="">
        <dc:format>image/svg+xml</dc:format>
        <dc:type
           rdf:resource="http://purl.org/dc/dcmitype/StillImage" />
        <dc:title></dc:title>
      </cc:Work>
    </rdf:RDF>
  </metadata>
  <g
     inkscape:label="Layer 1"
     inkscape:groupmode="layer"
     id="layer1"
     transform="translate(-51.493175,-98.912618)">
    <path
       id="path848"
       style="opacity:0.98999999;fill:none;fill-rule:evenodd;stroke:#ffffff;stroke-width:1;stroke-linecap:round;stroke-linejoin:miter;stroke-miterlimit:4;stroke-dasharray:none;stroke-opacity:1;fill-opacity:1"
       d="m 60.662809,112.86296 3.459339,3.36012 m 0.899206,-3.34001 2.525666,2.52567 m -2.648768,-6.46869 2.716315,2.6667 m -3.783334,-6.99141 6.714698,6.7147"
       inkscape:connector-curvature="0"
       sodipodi:nodetypes="cccccccc" />
    <path
       style="opacity:0.98999999;fill:none;fill-opacity:1;fill-rule:evenodd;stroke:#ffb100;stroke-width:1.5;stroke-linecap:round;stroke-linejoin:round;stroke-miterlimit:4;stroke-dasharray:none;stroke-dashoffset:0;stroke-opacity:1"
       d="m 56.937336,111.66934 a 4.9880454,5.0501892 19.787378 0 1 -1.392759,-5.49999 4.9880454,5.0501892 19.787378 0 1 6.403176,-3.0634 v 0 a 4.9880454,5.0501892 19.787378 0 1 2.98388,6.44061 4.9880454,5.0501892 19.787378 0 1 -5.325924,3.3188"
       id="path840"
       inkscape:connector-curvature="0"
       inkscape:export-filename="/tmp/logo.png"
       inkscape:export-xdpi="181.89322"
       inkscape:export-ydpi="181.89322" />
    <g
       aria-label="Míčkoflus"
       style="font-style:normal;font-variant:normal;font-weight:normal;font-stretch:normal;font-size:3.30729151px;line-height:125%;font-family:UnYetgul;-inkscape-font-specification:UnYetgul;letter-spacing:0px;word-spacing:0px;opacity:1;fill:#ffffff;fill-opacity:1;stroke:none;stroke-width:0.26458332px;stroke-linecap:butt;stroke-linejoin:miter;stroke-opacity:1"
       id="text860"
       transform="matrix(1.4235881,0,0,1.4235881,-28.563418,-43.149429)">
      <path
         d="m 73.006484,102.29048 2.709333,5.95841 2.772833,-5.969 1.090083,7.46125 H 78.7744 l -0.656166,-4.91066 -2.402417,5.207 -2.370667,-5.207 -0.6985,4.91066 h -0.804333 z"
         style="font-style:normal;font-variant:normal;font-weight:normal;font-stretch:normal;font-size:10.58333302px;font-family:Futura;-inkscape-font-specification:Futura;stroke-width:0.26458332px;fill:#ffffff;fill-opacity:1"
         id="path970"
         inkscape:connector-curvature="0" />
      <path
         d="m 81.63835,109.74114 h -0.751417 v -4.39208 h 0.751417 z m -0.391584,-5.15408 -0.433916,-0.26458 0.899583,-1.524 0.783167,0.34925 z"
         style="font-style:normal;font-variant:normal;font-weight:normal;font-stretch:normal;font-size:10.58333302px;font-family:Futura;-inkscape-font-specification:Futura;stroke-width:0.26458332px;fill:#ffffff;fill-opacity:1"
         id="path972"
         inkscape:connector-curvature="0" />
      <path
         d="m 86.393077,106.66139 q -0.370417,-0.40216 -0.677333,-0.56091 -0.296334,-0.15875 -0.6985,-0.15875 -0.328084,0 -0.613834,0.127 -0.28575,0.11641 -0.497416,0.33866 -0.211667,0.21167 -0.328084,0.508 -0.116416,0.29634 -0.116416,0.64559 0,0.34925 0.116416,0.64558 0.116417,0.29633 0.3175,0.51858 0.211667,0.21167 0.486834,0.33867 0.28575,0.11642 0.613833,0.11642 0.41275,0 0.73025,-0.16934 0.328083,-0.16933 0.6985,-0.59266 v 0.99483 q -0.402167,0.254 -0.719667,0.34925 -0.306916,0.10583 -0.687916,0.10583 -0.486834,0 -0.92075,-0.17991 -0.423334,-0.17992 -0.740834,-0.48684 -0.306916,-0.30691 -0.486833,-0.71966 -0.179917,-0.42334 -0.179917,-0.91017 0,-0.49742 0.179917,-0.92075 0.179917,-0.42333 0.486833,-0.73025 0.3175,-0.30692 0.740834,-0.48683 0.433916,-0.17992 0.931333,-0.17992 0.391583,0 0.709083,0.0952 0.3175,0.0953 0.656167,0.3175 z m -1.407583,-2.07433 -1.471084,-1.37583 0.53975,-0.41275 0.931334,0.86783 0.931333,-0.86783 0.529167,0.41275 z"
         style="font-style:normal;font-variant:normal;font-weight:normal;font-stretch:normal;font-size:10.58333302px;font-family:Futura;-inkscape-font-specification:Futura;stroke-width:0.26458332px;fill:#ffffff;fill-opacity:1"
         id="path974"
         inkscape:connector-curvature="0" />
      <path
         d="m 88.232758,106.96831 1.5875,-1.61925 h 1.005417 l -1.87325,1.87325 2.233083,2.51883 h -0.994833 l -1.767417,-2.00025 -0.1905,0.1905 v 1.80975 h -0.751416 v -7.71525 h 0.751416 z"
         style="font-style:normal;font-variant:normal;font-weight:normal;font-stretch:normal;font-size:10.58333302px;font-family:Futura;-inkscape-font-specification:Futura;stroke-width:0.26458332px;fill:#ffffff;fill-opacity:1"
         id="path976"
         inkscape:connector-curvature="0" />
      <path
         d="m 93.55419,105.25381 q 0.486833,0 0.910167,0.17992 0.423333,0.17991 0.73025,0.48683 0.3175,0.30692 0.497416,0.73025 0.179917,0.42333 0.179917,0.91017 0,0.48683 -0.179917,0.91016 -0.179916,0.42334 -0.497416,0.73025 -0.306917,0.30692 -0.740834,0.48684 -0.423333,0.17991 -0.92075,0.17991 -0.486833,0 -0.910166,-0.17991 -0.423334,-0.17992 -0.73025,-0.49742 -0.306917,-0.3175 -0.486834,-0.74083 -0.179916,-0.43392 -0.179916,-0.93134 0,-0.46566 0.179916,-0.87841 0.1905,-0.41275 0.508,-0.71967 0.3175,-0.30692 0.740834,-0.48683 0.423333,-0.17992 0.899583,-0.17992 z m -0.01058,0.68792 q -0.328084,0 -0.613834,0.127 -0.28575,0.11641 -0.497416,0.32808 -0.201084,0.21167 -0.3175,0.508 -0.116417,0.29633 -0.116417,0.635 0,0.35983 0.105833,0.66675 0.116417,0.29633 0.3175,0.51858 0.211667,0.21167 0.486834,0.33867 0.28575,0.11642 0.624416,0.11642 0.338667,0 0.624417,-0.11642 0.296333,-0.127 0.497417,-0.33867 0.211666,-0.21166 0.328083,-0.508 0.116417,-0.29633 0.116417,-0.65616 0,-0.34925 -0.116417,-0.64559 -0.116417,-0.30691 -0.328083,-0.51858 -0.201084,-0.21167 -0.486834,-0.32808 -0.28575,-0.127 -0.624416,-0.127 z"
         style="font-style:normal;font-variant:normal;font-weight:normal;font-stretch:normal;font-size:10.58333302px;font-family:Futura;-inkscape-font-specification:Futura;stroke-width:0.26458332px;fill:#ffffff;fill-opacity:1"
         id="path978"
         inkscape:connector-curvature="0" />
      <path
         d="m 97.72204,109.74114 h -0.751417 v -3.69358 h -0.41275 v -0.6985 h 0.41275 v -1.87325 q 0,-0.78317 0.254,-1.11125 0.34925,-0.46567 1.058333,-0.46567 0.148167,0 0.254,0.0212 0.116417,0.0212 0.296334,0.0741 v 0.762 q -0.169334,-0.0635 -0.275167,-0.0847 -0.105833,-0.0212 -0.232833,-0.0212 -0.359834,0 -0.486834,0.21167 -0.116416,0.20108 -0.116416,0.79375 v 1.69333 h 1.11125 v 0.6985 h -1.11125 z m 2.54,0 h -0.751417 v -7.71525 h 0.751417 z"
         style="font-style:normal;font-variant:normal;font-weight:normal;font-stretch:normal;font-size:10.58333302px;font-family:Futura;-inkscape-font-specification:Futura;stroke-width:0.26458332px;fill:#ffffff;fill-opacity:1"
         id="path980"
         inkscape:connector-curvature="0" />
      <path
         d="m 102.35076,107.91023 q 0,0.30691 0.0318,0.49741 0.0318,0.17992 0.10583,0.32809 0.11642,0.21166 0.33867,0.32808 0.23283,0.11642 0.51858,0.11642 0.27517,0 0.49742,-0.11642 0.23283,-0.11642 0.34925,-0.32808 0.0741,-0.14817 0.10583,-0.32809 0.0318,-0.1905 0.0318,-0.49741 v -2.56117 h 0.75142 v 2.64583 q 0,0.48684 -0.0953,0.78317 -0.0847,0.29633 -0.30692,0.53975 -0.24341,0.27517 -0.59266,0.41275 -0.33867,0.13758 -0.74084,0.13758 -0.41275,0 -0.762,-0.13758 -0.33866,-0.13758 -0.58208,-0.41275 -0.22225,-0.24342 -0.3175,-0.53975 -0.0847,-0.29633 -0.0847,-0.78317 v -2.64583 h 0.75142 z"
         style="font-style:normal;font-variant:normal;font-weight:normal;font-stretch:normal;font-size:10.58333302px;font-family:Futura;-inkscape-font-specification:Futura;stroke-width:0.26458332px;fill:#ffffff;fill-opacity:1"
         id="path982"
         inkscape:connector-curvature="0" />
      <path
         d="m 108.22484,106.37564 q -0.23283,-0.43391 -0.61383,-0.43391 -0.21167,0 -0.37042,0.14816 -0.15875,0.13759 -0.15875,0.33867 0,0.1905 0.13758,0.3175 0.14817,0.127 0.5715,0.30692 0.1905,0.0741 0.3175,0.13758 0.127,0.0529 0.21167,0.10583 0.0953,0.0423 0.15875,0.0847 0.0741,0.0423 0.14817,0.0952 0.48683,0.35983 0.48683,0.96308 0,0.30692 -0.11642,0.5715 -0.11641,0.254 -0.3175,0.4445 -0.20108,0.1905 -0.47625,0.29634 -0.27516,0.11641 -0.59266,0.11641 -1.10067,0 -1.53459,-1.12183 l 0.66675,-0.27517 q 0.1905,0.40217 0.381,0.56092 0.1905,0.14817 0.49742,0.14817 0.30692,0 0.508,-0.1905 0.21167,-0.20109 0.21167,-0.49742 0,-0.254 -0.14817,-0.40217 -0.14817,-0.14816 -0.56092,-0.32808 -0.381,-0.16933 -0.62441,-0.30692 -0.24342,-0.13758 -0.39159,-0.27516 -0.13758,-0.14817 -0.20108,-0.30692 -0.0529,-0.16933 -0.0529,-0.39158 0,-0.26459 0.0952,-0.48684 0.0953,-0.22225 0.26459,-0.381 0.17991,-0.16933 0.41275,-0.26458 0.23283,-0.0952 0.508,-0.0952 0.80433,0 1.2065,0.79375 z"
         style="font-style:normal;font-variant:normal;font-weight:normal;font-stretch:normal;font-size:10.58333302px;font-family:Futura;-inkscape-font-specification:Futura;stroke-width:0.26458332px;fill:#ffffff;fill-opacity:1"
         id="path984"
         inkscape:connector-curvature="0" />
    </g>
  </g>
</svg>
